<svg width="128" height="38" viewBox="0 0 128 38" fill="none" xmlns="http://www.w3.org/2000/svg">
<path fill-rule="evenodd" clip-rule="evenodd" d="M25.6098 5.06098V7.94634L29.0244 10.678V5.06098H25.6098ZM31.5854 12.7268V4.63415C31.5854 3.4561 30.6293 2.5 29.4512 2.5H25.1829C24.0049 2.5 23.0488 3.4561 23.0488 4.63415V5.89756L22.3539 5.34098C21.2186 4.43245 19.8078 3.93746 18.3537 3.93746C16.8996 3.93746 15.4888 4.43245 14.3534 5.34098L0.481463 16.4385C0.216117 16.6507 0.0459121 16.9595 0.00829051 17.2972C-0.0293311 17.6348 0.0687128 17.9736 0.280854 18.2389C0.492995 18.5042 0.801855 18.6745 1.13949 18.7121C1.47712 18.7497 1.81587 18.6517 2.08122 18.4395L3.41463 17.3707V34.939H1.28049C0.940881 34.939 0.615184 35.0739 0.375046 35.3141C0.134908 35.5542 0 35.8799 0 36.2195C0 36.5591 0.134908 36.8848 0.375046 37.125C0.615184 37.3651 0.940881 37.5 1.28049 37.5H35.4268C35.7664 37.5 36.0921 37.3651 36.3323 37.125C36.5724 36.8848 36.7073 36.5591 36.7073 36.2195C36.7073 35.8799 36.5724 35.5542 36.3323 35.3141C36.0921 35.0739 35.7664 34.939 35.4268 34.939H33.2927V17.3707L34.6278 18.4395C34.8936 18.6466 35.2303 18.7406 35.5649 18.7012C35.8996 18.6617 36.2052 18.4919 36.4155 18.2286C36.6257 17.9653 36.7238 17.6297 36.6883 17.2946C36.6528 16.9595 36.4866 16.6519 36.2259 16.4385L31.5854 12.7268ZM30.7317 15.322L20.7541 7.34024C20.0729 6.79496 19.2263 6.49786 18.3537 6.49786C17.481 6.49786 16.6344 6.79496 15.9532 7.34024L5.97561 15.322V34.939H11.9512V27.5976C11.9512 26.4639 11.9512 25.4856 12.0571 24.702C12.1698 23.862 12.4241 23.0578 13.0763 22.4056C13.7285 21.7534 14.5344 21.499 15.3727 21.3863C16.1563 21.2805 17.1346 21.2805 18.27 21.2805H18.4373C19.5727 21.2805 20.551 21.2805 21.3346 21.3863C22.1746 21.499 22.9788 21.7534 23.631 22.4056C24.2832 23.0578 24.5376 23.862 24.6502 24.702C24.7561 25.4856 24.7561 26.4639 24.7561 27.5993V34.939H30.7317V15.322ZM22.1951 34.939V27.6829C22.1951 26.44 22.1917 25.6341 22.1132 25.0434C22.038 24.4885 21.9185 24.3144 21.8195 24.2171C21.7222 24.1198 21.548 23.9985 20.9932 23.9234C20.4007 23.8449 19.5966 23.8415 18.3537 23.8415C17.1107 23.8415 16.3049 23.8449 15.7141 23.9234C15.1593 23.9985 14.9851 24.1198 14.8878 24.2171C14.7905 24.3144 14.6693 24.4885 14.5941 25.0434C14.5156 25.6359 14.5122 26.44 14.5122 27.6829V34.939H22.1951ZM18.3537 12.7439C18.0734 12.7439 17.7959 12.7991 17.537 12.9064C17.278 13.0136 17.0428 13.1708 16.8446 13.369C16.6464 13.5672 16.4892 13.8024 16.382 14.0613C16.2747 14.3203 16.2195 14.5978 16.2195 14.878C16.2195 15.1583 16.2747 15.4358 16.382 15.6948C16.4892 15.9537 16.6464 16.1889 16.8446 16.3871C17.0428 16.5853 17.278 16.7425 17.537 16.8497C17.7959 16.957 18.0734 17.0122 18.3537 17.0122C18.9197 17.0122 19.4625 16.7873 19.8627 16.3871C20.263 15.9869 20.4878 15.4441 20.4878 14.878C20.4878 14.312 20.263 13.7692 19.8627 13.369C19.4625 12.9688 18.9197 12.7439 18.3537 12.7439ZM13.6585 14.878C13.6585 13.6328 14.1532 12.4386 15.0337 11.5581C15.9142 10.6776 17.1084 10.1829 18.3537 10.1829C19.5989 10.1829 20.7931 10.6776 21.6736 11.5581C22.5541 12.4386 23.0488 13.6328 23.0488 14.878C23.0488 16.1233 22.5541 17.3175 21.6736 18.198C20.7931 19.0785 19.5989 19.5732 18.3537 19.5732C17.1084 19.5732 15.9142 19.0785 15.0337 18.198C14.1532 17.3175 13.6585 16.1233 13.6585 14.878Z" fill="white"/>
<path d="M56.5633 31.98C54.2593 31.98 52.2967 31.4787 50.6753 30.476C49.054 29.4627 47.8113 28.0547 46.9473 26.252C46.094 24.4493 45.6673 22.3587 45.6673 19.98C45.6673 17.6013 46.094 15.5107 46.9473 13.708C47.8113 11.9053 49.054 10.5027 50.6753 9.5C52.2967 8.48667 54.2593 7.98 56.5633 7.98C59.2193 7.98 61.4167 8.652 63.1553 9.996C64.9047 11.34 66.1207 13.148 66.8033 15.42L63.4113 16.332C62.9633 14.7213 62.1633 13.4573 61.0113 12.54C59.87 11.6227 58.3873 11.164 56.5633 11.164C54.9313 11.164 53.5713 11.532 52.4833 12.268C51.3953 13.004 50.574 14.0333 50.0193 15.356C49.4753 16.6787 49.2033 18.22 49.2033 19.98C49.1927 21.74 49.4593 23.2813 50.0033 24.604C50.558 25.9267 51.3793 26.956 52.4673 27.692C53.566 28.428 54.9313 28.796 56.5633 28.796C58.3873 28.796 59.87 28.3373 61.0113 27.42C62.1633 26.492 62.9633 25.228 63.4113 23.628L66.8033 24.54C66.1207 26.812 64.9047 28.62 63.1553 29.964C61.4167 31.308 59.2193 31.98 56.5633 31.98ZM82.4503 31.5V23.004C82.4503 22.332 82.3917 21.644 82.2743 20.94C82.1677 20.2253 81.9543 19.564 81.6343 18.956C81.325 18.348 80.8823 17.8573 80.3063 17.484C79.741 17.1107 78.9997 16.924 78.0823 16.924C77.485 16.924 76.9197 17.0253 76.3863 17.228C75.853 17.42 75.3837 17.7347 74.9783 18.172C74.5837 18.6093 74.269 19.1853 74.0343 19.9C73.8103 20.6147 73.6983 21.484 73.6983 22.508L71.6183 21.724C71.6183 20.156 71.9117 18.7747 72.4983 17.58C73.085 16.3747 73.9277 15.436 75.0263 14.764C76.125 14.092 77.453 13.756 79.0103 13.756C80.205 13.756 81.2077 13.948 82.0183 14.332C82.829 14.716 83.485 15.2227 83.9863 15.852C84.4983 16.4707 84.8877 17.148 85.1543 17.884C85.421 18.62 85.6023 19.34 85.6983 20.044C85.7943 20.748 85.8423 21.3667 85.8423 21.9V31.5H82.4503ZM70.3063 31.5V8.46H73.2983V20.892H73.6983V31.5H70.3063ZM94.8898 31.98C93.6098 31.98 92.5378 31.7453 91.6738 31.276C90.8098 30.796 90.1538 30.1667 89.7058 29.388C89.2685 28.5987 89.0498 27.7347 89.0498 26.796C89.0498 25.9213 89.2045 25.1533 89.5138 24.492C89.8232 23.8307 90.2818 23.2707 90.8898 22.812C91.4978 22.3427 92.2445 21.964 93.1298 21.676C93.8978 21.452 94.7672 21.2547 95.7378 21.084C96.7085 20.9133 97.7272 20.7533 98.7938 20.604C99.8712 20.4547 100.938 20.3053 101.994 20.156L100.778 20.828C100.799 19.4733 100.511 18.4707 99.9138 17.82C99.3272 17.1587 98.3138 16.828 96.8738 16.828C95.9672 16.828 95.1352 17.0413 94.3778 17.468C93.6205 17.884 93.0925 18.5773 92.7938 19.548L89.6738 18.588C90.1005 17.1053 90.9112 15.9267 92.1058 15.052C93.3112 14.1773 94.9112 13.74 96.9058 13.74C98.4525 13.74 99.7965 14.0067 100.938 14.54C102.09 15.0627 102.933 15.8947 103.466 17.036C103.743 17.6013 103.914 18.1987 103.978 18.828C104.042 19.4573 104.074 20.1347 104.074 20.86V31.5H101.114V27.548L101.69 28.06C100.975 29.3827 100.063 30.3693 98.9538 31.02C97.8552 31.66 96.5005 31.98 94.8898 31.98ZM95.4818 29.244C96.4312 29.244 97.2472 29.0787 97.9298 28.748C98.6125 28.4067 99.1618 27.9747 99.5778 27.452C99.9938 26.9293 100.266 26.3853 100.394 25.82C100.575 25.308 100.677 24.732 100.698 24.092C100.73 23.452 100.746 22.94 100.746 22.556L101.834 22.956C100.778 23.116 99.8178 23.26 98.9538 23.388C98.0898 23.516 97.3058 23.644 96.6018 23.772C95.9085 23.8893 95.2898 24.0333 94.7458 24.204C94.2872 24.364 93.8765 24.556 93.5138 24.78C93.1618 25.004 92.8792 25.276 92.6658 25.596C92.4632 25.916 92.3618 26.3053 92.3618 26.764C92.3618 27.212 92.4738 27.628 92.6978 28.012C92.9218 28.3853 93.2632 28.684 93.7218 28.908C94.1805 29.132 94.7672 29.244 95.4818 29.244ZM108.229 31.5V14.22H111.205V18.412L110.789 17.868C111.002 17.3133 111.279 16.8067 111.621 16.348C111.962 15.8787 112.357 15.4947 112.805 15.196C113.242 14.876 113.727 14.6307 114.261 14.46C114.805 14.2787 115.359 14.172 115.925 14.14C116.49 14.0973 117.034 14.124 117.557 14.22V17.356C116.991 17.2067 116.362 17.164 115.669 17.228C114.986 17.292 114.357 17.5107 113.781 17.884C113.237 18.236 112.805 18.6627 112.485 19.164C112.175 19.6653 111.951 20.2253 111.813 20.844C111.674 21.452 111.605 22.0973 111.605 22.78V31.5H108.229ZM120.924 11.388V8.14H124.268V11.388H120.924ZM120.924 31.5V14.22H124.268V31.5H120.924Z" fill="white"/>
</svg>
