<svg width="793" height="650" viewBox="0 0 793 650" fill="none" xmlns="http://www.w3.org/2000/svg">
<g opacity="0.5">
<g opacity="0.6">
<path d="M100.64 0H99.52V650H100.64V0Z" fill="#006FEE"/>
<path d="M167.2 0H166.08V650H167.2V0Z" fill="#006FEE"/>
<path d="M33.92 0H32.8V650H33.92V0Z" fill="#006FEE"/>
<path d="M233.92 0H232.8V650H233.92V0Z" fill="#006FEE"/>
<path d="M300.64 0H299.52V650H300.64V0Z" fill="#006FEE"/>
<path d="M367.2 0H366.08V650H367.2V0Z" fill="#006FEE"/>
<path d="M433.92 0H432.8V650H433.92V0Z" fill="#006FEE"/>
<path d="M500.64 0H499.52V650H500.64V0Z" fill="#006FEE"/>
<path d="M567.2 0H566.08V650H567.2V0Z" fill="#006FEE"/>
<path d="M633.92 0H632.8V650H633.92V0Z" fill="#006FEE"/>
<path d="M700.48 0H699.36V650H700.48V0Z" fill="#006FEE"/>
<path d="M767.36 0H766.24V650H767.36V0Z" fill="#006FEE"/>
</g>
<g opacity="0.6">
<path d="M800 80.86H0V81.77H800V80.86Z" fill="#006FEE"/>
<path d="M800 134.94H0V135.85H800V134.94Z" fill="#006FEE"/>
<path d="M800 27.17H0V28.08H800V27.17Z" fill="#006FEE"/>
<path d="M800 189.15H0V190.06H800V189.15Z" fill="#006FEE"/>
<path d="M800 243.36H0V244.27H800V243.36Z" fill="#006FEE"/>
<path d="M800 297.44H0V298.35H800V297.44Z" fill="#006FEE"/>
<path d="M800 351.65H0V352.56H800V351.65Z" fill="#006FEE"/>
<path d="M800 405.86H0V406.77H800V405.86Z" fill="#006FEE"/>
<path d="M800 459.94H0V460.85H800V459.94Z" fill="#006FEE"/>
<path d="M800 514.15H0V515.06H800V514.15Z" fill="#006FEE"/>
<path d="M800 568.23H0V569.14H800V568.23Z" fill="#006FEE"/>
<path d="M800 622.44H0V623.35H800V622.44Z" fill="#006FEE"/>
</g>
<path d="M101.6 559.65H98.4V577.33H101.6V559.65Z" fill="#006FEE"/>
<path d="M110.88 567.19H89.12V569.79H110.88V567.19Z" fill="#006FEE"/>
<path d="M301.76 559.65H298.4V577.33H301.76V559.65Z" fill="#006FEE"/>
<path d="M310.88 567.19H289.12V569.79H310.88V567.19Z" fill="#006FEE"/>
<path d="M101.6 397.02H98.4V414.7H101.6V397.02Z" fill="#006FEE"/>
<path d="M110.88 404.56H89.12V407.16H110.88V404.56Z" fill="#006FEE"/>
<path d="M301.76 397.02H298.4V414.7H301.76V397.02Z" fill="#006FEE"/>
<path d="M310.88 404.56H289.12V407.16H310.88V404.56Z" fill="#006FEE"/>
<path d="M501.76 559.65H498.56V577.33H501.76V559.65Z" fill="#006FEE"/>
<path d="M511.04 567.19H489.28V569.79H511.04V567.19Z" fill="#006FEE"/>
<path d="M701.76 559.65H698.56V577.33H701.76V559.65Z" fill="#006FEE"/>
<path d="M711.04 567.19H689.28V569.79H711.04V567.19Z" fill="#006FEE"/>
<path d="M501.76 397.02H498.56V414.7H501.76V397.02Z" fill="#006FEE"/>
<path d="M511.04 404.56H489.28V407.16H511.04V404.56Z" fill="#006FEE"/>
<path d="M701.76 397.02H698.56V414.7H701.76V397.02Z" fill="#006FEE"/>
<path d="M711.04 404.56H689.28V407.16H711.04V404.56Z" fill="#006FEE"/>
<path d="M101.6 559.26H98.4V576.94H101.6V559.26Z" fill="#006FEE"/>
<path d="M110.88 566.8H89.12V569.4H110.88V566.8Z" fill="#006FEE"/>
<path d="M301.76 559.26H298.4V576.94H301.76V559.26Z" fill="#006FEE"/>
<path d="M310.88 566.8H289.12V569.4H310.88V566.8Z" fill="#006FEE"/>
<path d="M101.6 396.63H98.4V414.31H101.6V396.63Z" fill="#006FEE"/>
<path d="M110.88 404.17H89.12V406.77H110.88V404.17Z" fill="#006FEE"/>
<path d="M301.76 396.63H298.4V414.31H301.76V396.63Z" fill="#006FEE"/>
<path d="M310.88 404.17H289.12V406.77H310.88V404.17Z" fill="#006FEE"/>
<path d="M501.76 559.26H498.56V576.94H501.76V559.26Z" fill="#006FEE"/>
<path d="M511.04 566.8H489.28V569.4H511.04V566.8Z" fill="#006FEE"/>
<path d="M701.76 559.26H698.56V576.94H701.76V559.26Z" fill="#006FEE"/>
<path d="M711.04 566.8H689.28V569.4H711.04V566.8Z" fill="#006FEE"/>
<path d="M501.76 396.63H498.56V414.31H501.76V396.63Z" fill="#006FEE"/>
<path d="M511.04 404.17H489.28V406.77H511.04V404.17Z" fill="#006FEE"/>
<path d="M701.76 396.63H698.56V414.31H701.76V396.63Z" fill="#006FEE"/>
<path d="M711.04 404.17H689.28V406.77H711.04V404.17Z" fill="#006FEE"/>
<path d="M101.6 234.13H98.4V251.81H101.6V234.13Z" fill="#006FEE"/>
<path d="M110.88 241.67H89.12V244.4H110.88V241.67Z" fill="#006FEE"/>
<path d="M301.76 234.13H298.4V251.81H301.76V234.13Z" fill="#006FEE"/>
<path d="M310.88 241.67H289.12V244.4H310.88V241.67Z" fill="#006FEE"/>
<path d="M101.6 71.5H98.4V89.18H101.6V71.5Z" fill="#006FEE"/>
<path d="M110.88 79.0402H89.12V81.6402H110.88V79.0402Z" fill="#006FEE"/>
<path d="M301.76 71.5H298.4V89.18H301.76V71.5Z" fill="#006FEE"/>
<path d="M310.88 79.0402H289.12V81.6402H310.88V79.0402Z" fill="#006FEE"/>
<path d="M501.76 234.13H498.56V251.81H501.76V234.13Z" fill="#006FEE"/>
<path d="M511.04 241.67H489.28V244.4H511.04V241.67Z" fill="#006FEE"/>
<path d="M701.76 234.13H698.56V251.81H701.76V234.13Z" fill="#006FEE"/>
<path d="M711.04 241.67H689.28V244.4H711.04V241.67Z" fill="#006FEE"/>
<path d="M501.76 71.5H498.56V89.18H501.76V71.5Z" fill="#006FEE"/>
<path d="M511.04 79.0402H489.28V81.6402H511.04V79.0402Z" fill="#006FEE"/>
<path d="M701.76 71.5H698.56V89.18H701.76V71.5Z" fill="#006FEE"/>
<path d="M711.04 79.0402H689.28V81.6402H711.04V79.0402Z" fill="#006FEE"/>
</g>
</svg>
